M48
INCH,TZ
FMAT,2
ICI,OFF
T01C.012F095S3
T02C.035F197S55
T03C.03937F197S55
T04C.043F139S55
T05C.05118F107S55
T06C.07087F081S55
T07C.13F035S794
%
T01
G05
X4853Y24952
X7163Y24522
X8233Y20352
X7933Y27449
X10003Y18752
X9013Y21212
X8343Y23152
X9153Y23992
X9053Y25572
X8213Y27022
X9033Y27092
X9393Y29002
X9263Y30092
X9073Y30252
X8433Y31172
X8403Y33239
X9843Y25932
X9813Y27062
X9793Y29082
X10063Y29292
X9743Y29482
X10043Y33249
X9113Y35602
X10463Y26962
X10473Y30932
X10543Y32462
X9743Y38982
X9803Y41032
X10783Y32832
X10783Y17522
X11083Y25902
X10261Y43772
X10261Y44772
X10823Y28702
X11363Y27062
X12103Y27072
X11153Y29222
X11043Y30842
X11693Y36022
X11873Y41042
X11923Y45152
X13203Y22062
X13093Y24982
X13023Y25632
X12433Y26699
X13053Y28082
X12613Y38212
X14673Y18722
X14193Y23102
X14823Y23592
X14443Y24122
X14923Y24992
X14943Y25402
X14403Y27932
X14673Y28532
X13983Y28702
X14943Y29582
X14133Y29652
X14513Y29812
X13703Y31832
X14623Y32602
X13963Y34142
X13203Y35522
X13713Y40042
X13765Y43772
X13765Y44772
X15713Y16612
X15803Y18772
X15323Y19042
X15333Y27022
X15433Y29552
X15563Y30962
X15463Y31532
X14903Y34592
X15373Y34642
X15683Y34992
X14913Y36012
X14813Y36922
X14133Y37642
X15223Y38042
X14833Y38742
X14103Y39312
X14613Y41242
X16313Y17602
X16653Y21502
X16993Y28512
X16633Y29102
X16773Y29682
X16043Y30962
X16073Y31542
X15933Y33032
X16113Y42072
X18233Y18002
X17463Y22722
X17923Y27002
X17903Y29722
X17363Y30512
X18113Y31252
X17273Y31532
X17243Y32892
X16253Y37012
X18003Y35012
X18283Y36352
X17283Y37302
X18543Y20812
X19063Y28172
X18513Y29192
X18563Y30842
X18683Y31522
X18583Y40892
X18193Y41532
X17923Y43232
X17963Y44892
X20183Y19922
X20503Y21872
X20783Y27332
X19913Y27612
X20233Y27992
X21003Y28532
X20513Y31132
X20903Y31502
X20003Y31732
X19393Y32142
X19503Y32662
X19523Y36732
X19143Y38522
X20943Y36052
X19983Y38952
X19443Y41032
X20103Y41572
X19873Y43342
X19723Y43752
X20083Y44152
X21813Y16822
X21233Y17522
X21813Y18822
X22493Y22682
X22153Y23222
X22643Y23792
X22093Y24022
X21513Y28822
X22633Y31152
X21853Y31212
X21513Y31542
X22523Y32332
X22053Y32562
X21733Y34272
X22353Y35152
X21713Y36992
X22663Y38602
X21893Y38902
X21753Y40912
X21693Y42082
X21763Y44632
X23013Y18422
X22903Y22182
X23173Y22712
X23523Y33052
X22873Y33972
X22873Y34352
X21983Y42432
X23173Y34802
X23603Y37482
X23503Y37842
X23063Y40822
X23013Y41572
X22053Y43792
X24583Y15982
X24353Y19792
X24463Y23822
X24723Y25432
X25043Y28772
X25103Y31612
X24463Y35512
X24543Y38092
X26853Y17142
X26323Y18012
X25533Y28002
X26123Y28552
X25803Y29492
X25583Y29802
X26723Y28272
X25803Y28282
X25783Y31542
X26173Y31782
X25533Y31942
X26413Y32242
X25913Y32332
X25333Y33312
X26663Y32662
X25913Y33602
X25703Y34062
X26083Y34462
X25143Y34872
X25813Y35052
X25803Y36752
X25823Y37312
X25133Y43392
X27133Y16212
X27723Y23382
X27723Y25502
X26973Y26122
X27383Y26682
X27563Y28992
X26963Y31772
X26313Y34922
X26133Y38562
X26563Y40792
X26133Y44282
X28123Y22162
X28073Y30082
X27343Y30472
X27983Y31692
X27673Y32012
X27123Y33292
X26883Y33852
X27863Y34722
X27053Y34902
X27003Y36242
X27383Y36352
X26693Y38652
X27843Y37362
X27573Y38342
X27953Y38612
X27123Y38912
X28263Y38892
X29323Y18722
X29093Y22682
X28523Y24562
X28343Y30422
X28383Y34182
X28373Y34882
X30743Y19452
X29833Y29672
X28883Y36642
X28383Y37062
X30723Y22592
X30093Y23232
X30313Y31882
X29813Y31962
X30493Y32212
X30033Y32942
X29813Y33622
X29643Y34892
X29643Y35932
X30023Y36482
X29143Y37612
X29543Y38232
X30553Y33222
X29623Y39212
X29173Y40882
X31143Y23822
X31613Y27992
X30913Y34682
X31963Y29842
X31953Y30692
X31893Y31682
X31623Y33952
X31163Y34202
X31593Y34462
X31903Y36492
X31343Y37212
X30983Y37262
X31093Y37582
X30303Y37792
X30623Y38092
X30163Y40652
X30223Y44252
X32303Y19572
X33123Y21952
X32163Y22352
X32483Y22702
X32083Y31052
X31653Y38002
X31773Y40812
X33943Y20762
X33183Y28812
X32623Y29942
X32753Y32792
X32203Y37572
X34963Y19902
X34273Y21462
X34993Y22952
X34213Y22972
X34723Y23632
X33913Y23982
X34643Y24612
X34173Y28872
X35263Y25262
X35313Y26462
X35283Y27962
X34903Y29742
X34383Y33042
X35533Y30252
X35523Y32062
X34713Y33122
X36743Y20202
X36773Y21242
X36303Y21942
X36703Y22192
X35853Y23232
X36873Y23762
X36043Y25452
X36753Y25812
X36253Y25872
X35903Y28202
X36413Y29192
X36023Y31722
X35903Y32382
X35403Y32862
X35633Y33242
X35943Y34302
X35143Y35302
X35773Y35462
X35853Y37162
X35083Y37522
X35643Y38492
X35133Y38792
X35573Y39992
X35243Y42902
X37823Y19572
X37373Y20822
X37153Y21772
X38163Y21492
X37473Y22162
X37843Y23722
X37283Y25582
X37763Y25872
X37273Y27442
X37453Y28072
X38023Y28942
X37243Y29192
X38383Y29402
X37433Y29792
X38323Y30292
X38003Y30602
X37253Y30962
X37153Y32752
X38373Y31262
X37373Y31382
X37463Y32452
X37803Y34032
X37413Y35112
X36483Y38152
X39853Y23902
X39103Y25482
X38573Y25612
X40033Y25442
X39583Y25562
X39513Y27262
X38603Y27812
X40013Y28562
X39463Y30052
X39413Y31902
X39473Y33612
X38873Y34672
X39143Y35102
X38863Y35312
X38483Y36102
X39533Y33022
X39523Y34922
X38983Y37302
X38593Y39252
T02
X11013Y32022
X25375Y26272
X17501Y26272
X37313Y20222
T03
X9013Y39485
X9013Y40272
X9013Y41059
X11263Y42022
X11263Y41038
X11263Y38772
X11263Y37788
X14013Y16622
X14013Y17622
X17013Y17622
X17013Y16622
X37263Y36522
X37263Y37506
X37263Y38522
X37263Y39475
X37263Y40459
X37263Y41443
T04
X18513Y40022
X17513Y40022
X19513Y40022
X22113Y21022
X21113Y21022
X20513Y40022
X22513Y40022
X21513Y40022
X25113Y21022
X24113Y21022
X23113Y21022
X24513Y40022
X23513Y40022
X26113Y21022
X27113Y40022
X26113Y40022
X28113Y40022
X28113Y21022
X29113Y21022
X30113Y21022
X31113Y21022
X29113Y40022
X31113Y40022
X30113Y40022
X32113Y21022
X33113Y21022
X32113Y40022
X33213Y32002
X33213Y31002
X33213Y30002
X33263Y34022
X33113Y40022
X34213Y32002
X34213Y31002
X34213Y30002
X34263Y34022
X34263Y35022
X33263Y35022
X33263Y36022
X34263Y36022
X33263Y37022
X34263Y37022
X33263Y38022
X34263Y38022
T05
X9013Y38658
X9013Y41886
T06
X3813Y29439
X5813Y29439
X4813Y30439
X3813Y31439
X5813Y31439
T07
X8513Y16822
X8513Y44022
X33944Y19122
X32763Y17272
X35125Y17272
X39213Y44022
X39213Y16822
M30
