*
%LPD*%
%LNFREAK900LR-MT*%
%FSLAX25Y25*%
%MOIN*%
%AD*%
%AD*%
%ADD28R,0.118109843X0.118109843*%
%ADD41R,0.064959843X0.064959843*%
%ADD42C,0.064959843*%
%ADD47R,0.067X0.067*%
%ADD48C,0.067*%
%ADD49C,0.182*%
%ADD53C,0.252*%
%ADD60R,0.059059843X0.059059843*%
%ADD74C,0.100429921*%
%ADD75C,0.062*%
%ADD76R,0.064990157X0.064990157*%
%ADD77C,0.064990157*%
%ADD78C,0.072870079*%
%ADD79C,0.057*%
%ADD104R,0.125979921X0.062990157*%
%ADD106R,0.062990157X0.125979921*%
%ADD114O,0.059059843X0.01575*%
%ADD118R,0.055120079X0.023620079*%
%ADD129R,0.059059843X0.035429921*%
%ADD140R,0.037X0.041*%
%ADD141R,0.041X0.037*%
%ADD142R,0.052X0.06*%
%ADD147R,0.062X0.042*%
%ADD148R,0.072X0.152*%
%ADD149R,0.032X0.062*%
%ADD150R,0.022X0.062*%
%ADD151R,0.062X0.032*%
%ADD152R,0.062X0.022*%
%ADD153C,0.042*%
%ADD154R,0.219X0.082*%
%ADD168O,0.009840157X0.039370079*%
%ADD171O,0.023620079X0.082679921*%
%ADD173R,0.047X0.027*%
%ADD174R,0.06X0.052*%
%ADD175R,0.061059843X0.029559843*%
%ADD176R,0.0335X0.049240157*%
%ADD177R,0.049240157X0.049240157*%
%ADD178R,0.112240157X0.049240157*%
%ADD179R,0.0768X0.064990157*%
%ADD180R,0.064990157X0.047279921*%
%ADD181O,0.039370079X0.009840157*%
%ADD185O,0.047240157X0.009840157*%
%ADD186O,0.009840157X0.047240157*%
%ADD188R,0.037X0.042*%
%ADD193R,0.070870079X0.055120079*%
%ADD194R,0.08465X0.216540157*%
%ADD195R,0.057120079X0.100429921*%
%ADD196R,0.072X0.036*%
%ADD197R,0.112X0.036*%
%ADD198R,0.112X0.072*%
G54D28*
%SRX1Y1I0.0J0.0*%
G1X157335Y312294D3*
G54D41*
G1X112635Y387721D3*
G1X112635Y420221D3*
G1X170135Y166221D3*
G1X372635Y365221D3*
G54D42*
G1X112635Y377879D3*
G1X112635Y410379D3*
G1X170135Y176221D3*
G1X140135Y176221D3*
G1X140135Y166221D3*
G1X372635Y375064D3*
G1X372635Y385221D3*
G1X372635Y394749D3*
G1X372635Y404591D3*
G1X372635Y414434D3*
G54D47*
G1X211135Y210221D3*
G1X245135Y400221D3*
G1X281135Y210221D3*
G1X331135Y400221D3*
G1X332635Y380221D3*
G1X332135Y320021D3*
G54D48*
G1X221135Y210221D3*
G1X231135Y210221D3*
G1X241135Y210221D3*
G1X251135Y210221D3*
G1X261135Y210221D3*
G1X235135Y400221D3*
G1X225135Y400221D3*
G1X215135Y400221D3*
G1X205135Y400221D3*
G1X195135Y400221D3*
G1X185135Y400221D3*
G1X175135Y400221D3*
G1X291135Y210221D3*
G1X301135Y210221D3*
G1X311135Y210221D3*
G1X321135Y210221D3*
G1X331135Y210221D3*
G1X321135Y400221D3*
G1X311135Y400221D3*
G1X301135Y400221D3*
G1X291135Y400221D3*
G1X281135Y400221D3*
G1X271135Y400221D3*
G1X261135Y400221D3*
G1X342635Y380221D3*
G1X332635Y370221D3*
G1X342635Y370221D3*
G1X332635Y360221D3*
G1X342635Y360221D3*
G1X332635Y350221D3*
G1X342635Y350221D3*
G1X332635Y340221D3*
G1X342635Y340221D3*
G1X342135Y320021D3*
G1X332135Y310021D3*
G1X342135Y310021D3*
G1X332135Y300021D3*
G1X342135Y300021D3*
G54D49*
G1X327635Y172721D3*
G1X351257Y172721D3*
G1X339446Y191225D3*
G54D53*
G1X85135Y440221D3*
G1X392135Y440221D3*
G1X85135Y168221D3*
G1X392135Y168221D3*
G54D60*
G1X91935Y301921D3*
G54D74*
G1X48135Y304394D3*
G1X58135Y294394D3*
G1X58135Y314394D3*
G1X38135Y294394D3*
G1X38135Y314394D3*
G54D75*
G1X175017Y262721D3*
G1X253757Y262721D3*
G54D76*
G1X90135Y394847D3*
G54D77*
G1X90135Y402721D3*
G1X90135Y410595D3*
G54D78*
G1X90135Y418863D3*
G1X90135Y386579D3*
G54D79*
G1X373135Y202221D3*
G1X110135Y320221D3*
G54D104*
G1X149505Y440221D3*
G1X170765Y440221D3*
G1X134505Y412721D3*
G1X155765Y412721D3*
G54D106*
G1X396935Y397491D3*
G1X396935Y418751D3*
G1X396435Y360691D3*
G1X396435Y381951D3*
G1X303735Y162191D3*
G1X303735Y183451D3*
G54D114*
G1X389446Y295044D3*
G1X389446Y297603D3*
G1X389446Y300162D3*
G1X389446Y302721D3*
G1X389446Y305280D3*
G1X389446Y307839D3*
G1X389446Y310398D3*
G1X365824Y310398D3*
G1X365824Y307839D3*
G1X365824Y305280D3*
G1X365824Y302721D3*
G1X365824Y300162D3*
G1X365824Y297603D3*
G1X365824Y295044D3*
G1X389446Y327544D3*
G1X389446Y330103D3*
G1X389446Y332662D3*
G1X389446Y335221D3*
G1X389446Y337780D3*
G1X389446Y340339D3*
G1X389446Y342898D3*
G1X365824Y342898D3*
G1X365824Y340339D3*
G1X365824Y337780D3*
G1X365824Y335221D3*
G1X365824Y332662D3*
G1X365824Y330103D3*
G1X365824Y327544D3*
G54D118*
G1X194859Y441481D3*
G1X194859Y445221D3*
G1X194859Y448961D3*
G1X185410Y448961D3*
G1X185410Y441481D3*
G54D129*
G1X113639Y437721D3*
G1X126631Y437721D3*
G1X113639Y447721D3*
G1X126631Y447721D3*
G54D140*
G1X154135Y290821D3*
G1X154135Y285021D3*
G1X116835Y280694D3*
G1X116835Y274894D3*
G1X109335Y280694D3*
G1X109335Y274894D3*
G1X352635Y237321D3*
G1X352635Y243121D3*
G1X182635Y340621D3*
G1X182635Y334821D3*
G1X162235Y290921D3*
G1X162235Y285121D3*
G1X145835Y335621D3*
G1X145835Y341421D3*
G1X84035Y318694D3*
G1X84035Y324494D3*
G1X153335Y335621D3*
G1X153335Y341421D3*
G1X94335Y280694D3*
G1X94335Y274894D3*
G1X352635Y359821D3*
G1X352635Y365621D3*
G1X101835Y280694D3*
G1X101835Y274894D3*
G1X65135Y239821D3*
G1X65135Y245621D3*
G1X79335Y288194D3*
G1X79335Y282394D3*
G1X205135Y187321D3*
G1X205135Y193121D3*
G1X342135Y399121D3*
G1X342135Y393321D3*
G1X350135Y399121D3*
G1X350135Y393321D3*
G1X138035Y256021D3*
G1X138035Y250221D3*
G1X100435Y318794D3*
G1X100435Y324594D3*
G1X357635Y202321D3*
G1X357635Y208121D3*
G1X124335Y280694D3*
G1X124335Y274894D3*
G1X86835Y280694D3*
G1X86835Y274894D3*
G1X311235Y334421D3*
G1X311235Y328621D3*
G1X91535Y318694D3*
G1X91535Y324494D3*
G1X166535Y415821D3*
G1X166535Y410021D3*
G1X400135Y298121D3*
G1X400135Y292321D3*
G1X400135Y313121D3*
G1X400135Y307321D3*
G1X356035Y292421D3*
G1X356035Y298221D3*
G1X355135Y309821D3*
G1X355135Y315621D3*
G1X400135Y324821D3*
G1X400135Y330621D3*
G1X400135Y339821D3*
G1X400135Y345621D3*
G1X355135Y343121D3*
G1X355135Y337321D3*
G54D141*
G1X264735Y370221D3*
G1X270535Y370221D3*
G1X130435Y296394D3*
G1X124635Y296394D3*
G1X130435Y304294D3*
G1X124635Y304294D3*
G1X75535Y312721D3*
G1X69735Y312721D3*
G1X267035Y300821D3*
G1X272835Y300821D3*
G1X69735Y297721D3*
G1X75535Y297721D3*
G1X171535Y423321D3*
G1X177335Y423321D3*
G1X334735Y245221D3*
G1X340535Y245221D3*
G1X300535Y245221D3*
G1X294735Y245221D3*
G1X188035Y160221D3*
G1X182235Y160221D3*
G1X188035Y167721D3*
G1X182235Y167721D3*
G1X193035Y425221D3*
G1X187235Y425221D3*
G1X188035Y175221D3*
G1X182235Y175221D3*
G1X75835Y304719D3*
G1X70035Y304719D3*
G1X199735Y160221D3*
G1X205535Y160221D3*
G1X224735Y420221D3*
G1X230535Y420221D3*
G1X230535Y427721D3*
G1X224735Y427721D3*
G1X222235Y317721D3*
G1X228035Y317721D3*
G1X199735Y175221D3*
G1X205535Y175221D3*
G1X323035Y200221D3*
G1X317235Y200221D3*
G1X308035Y200221D3*
G1X302235Y200221D3*
G1X199735Y167721D3*
G1X205535Y167721D3*
G1X120535Y175221D3*
G1X114735Y175221D3*
G1X204935Y409821D3*
G1X210735Y409821D3*
G1X224735Y435221D3*
G1X230535Y435221D3*
G1X187235Y432721D3*
G1X193035Y432721D3*
G1X187235Y417721D3*
G1X193035Y417721D3*
G1X230535Y442721D3*
G1X224735Y442721D3*
G1X179735Y322721D3*
G1X185535Y322721D3*
G1X164735Y350221D3*
G1X170535Y350221D3*
G1X385535Y285221D3*
G1X379735Y285221D3*
G1X382235Y320221D3*
G1X388035Y320221D3*
G54D142*
G1X131735Y360221D3*
G1X123535Y360221D3*
G1X119035Y264894D3*
G1X110835Y264894D3*
G1X90235Y265294D3*
G1X98435Y265294D3*
G54D147*
G1X133935Y389221D3*
G1X133935Y380221D3*
G1X133935Y371221D3*
G1X282235Y162421D3*
G1X282235Y171421D3*
G1X282235Y180421D3*
G54D148*
G1X160935Y380221D3*
G1X255235Y171421D3*
G54D149*
G1X251435Y310021D3*
G1X283935Y310021D3*
G1X283935Y356021D3*
G1X251435Y356021D3*
G54D150*
G1X255035Y310021D3*
G1X258235Y310021D3*
G1X261335Y310021D3*
G1X264535Y310021D3*
G1X267635Y310021D3*
G1X270835Y310021D3*
G1X273935Y310021D3*
G1X277135Y310021D3*
G1X280235Y310021D3*
G1X280235Y356021D3*
G1X277135Y356021D3*
G1X273935Y356021D3*
G1X270835Y356021D3*
G1X267635Y356021D3*
G1X264535Y356021D3*
G1X261335Y356021D3*
G1X258235Y356021D3*
G1X255035Y356021D3*
G54D151*
G1X290735Y316721D3*
G1X290735Y349221D3*
G1X244735Y349221D3*
G1X244735Y316721D3*
G54D152*
G1X290735Y320321D3*
G1X290735Y323521D3*
G1X290735Y326621D3*
G1X290735Y329821D3*
G1X290735Y332921D3*
G1X290735Y336121D3*
G1X290735Y339221D3*
G1X290735Y342421D3*
G1X290735Y345521D3*
G1X244735Y345521D3*
G1X244735Y342421D3*
G1X244735Y339221D3*
G1X244735Y336121D3*
G1X244735Y332921D3*
G1X244735Y329821D3*
G1X244735Y326621D3*
G1X244735Y323521D3*
G1X244735Y320321D3*
G54D153*
G1X243235Y308521D3*
G1X292235Y357521D3*
G54D154*
G1X336435Y260221D3*
G1X298835Y260221D3*
G54D168*
G1X150445Y302451D3*
G1X152413Y302451D3*
G1X154382Y302451D3*
G1X156350Y302451D3*
G1X158319Y302451D3*
G1X160287Y302451D3*
G1X162256Y302451D3*
G1X164224Y302451D3*
G1X164224Y322137D3*
G1X162256Y322137D3*
G1X160287Y322137D3*
G1X158319Y322137D3*
G1X156350Y322137D3*
G1X154382Y322137D3*
G1X152413Y322137D3*
G1X150445Y322137D3*
G54D171*
G1X362635Y229611D3*
G1X367635Y229611D3*
G1X372635Y229611D3*
G1X377635Y229611D3*
G1X382635Y229611D3*
G1X387635Y229611D3*
G1X392635Y229611D3*
G1X397635Y229611D3*
G1X397635Y265831D3*
G1X392635Y265831D3*
G1X387635Y265831D3*
G1X382635Y265831D3*
G1X377635Y265831D3*
G1X372635Y265831D3*
G1X367635Y265831D3*
G1X362635Y265831D3*
G54D173*
G1X110435Y304394D3*
G1X110435Y300494D3*
G1X110435Y296594D3*
G1X117735Y296594D3*
G1X117735Y300494D3*
G1X117735Y304394D3*
G54D174*
G1X208635Y446221D3*
G1X208635Y438021D3*
G1X55135Y241121D3*
G1X55135Y249321D3*
G1X352635Y413621D3*
G1X352635Y421821D3*
G54D175*
G1X77044Y225221D3*
G1X77044Y220890D3*
G1X77044Y216560D3*
G1X77044Y212229D3*
G1X77044Y207898D3*
G1X77044Y203568D3*
G1X77044Y199237D3*
G1X77044Y194906D3*
G1X77044Y191166D3*
G1X77044Y231323D3*
G54D176*
G1X118973Y187032D3*
G54D177*
G1X94564Y187032D3*
G54D178*
G1X135312Y187032D3*
G54D179*
G1X137083Y241166D3*
G54D180*
G1X162635Y335221D3*
G1X174446Y335221D3*
G1X174446Y341520D3*
G1X162635Y341520D3*
G54D181*
G1X147492Y319184D3*
G1X147492Y317216D3*
G1X147492Y315247D3*
G1X147492Y313279D3*
G1X147492Y311310D3*
G1X147492Y309342D3*
G1X147492Y307373D3*
G1X147492Y305405D3*
G1X167177Y305405D3*
G1X167177Y307373D3*
G1X167177Y309342D3*
G1X167177Y311310D3*
G1X167177Y313279D3*
G1X167177Y315247D3*
G1X167177Y317216D3*
G1X167177Y319184D3*
G54D185*
G1X99021Y298968D3*
G1X99021Y300937D3*
G1X99021Y302905D3*
G1X99021Y304874D3*
G1X84848Y304874D3*
G1X84848Y302905D3*
G1X84848Y300937D3*
G1X84848Y298968D3*
G54D186*
G1X94887Y309008D3*
G1X92919Y309008D3*
G1X90950Y309008D3*
G1X88982Y309008D3*
G1X88982Y294834D3*
G1X90950Y294834D3*
G1X92919Y294834D3*
G1X94887Y294834D3*
G54D188*
G1X172935Y408321D3*
G1X180435Y408321D3*
G1X176635Y417121D3*
G54D193*
G1X300135Y413021D3*
G1X300135Y427421D3*
G1X340135Y413021D3*
G1X340135Y427421D3*
G54D194*
G1X285213Y442721D3*
G1X270056Y442721D3*
G1X325213Y442721D3*
G1X310056Y442721D3*
G54D195*
G1X235593Y158523D3*
G1X235593Y196319D3*
G1X217876Y196319D3*
G1X217876Y158523D3*
G54D196*
G1X284135Y411821D3*
G1X284135Y423621D3*
G1X326635Y411821D3*
G1X326635Y423621D3*
G54D197*
G1X282135Y417721D3*
G1X324635Y417721D3*
G54D198*
G1X273135Y417721D3*
G1X315635Y417721D3*
M2*
